<svg width="3000" height="261" viewBox="0 0 3000 261" fill="none" xmlns="http://www.w3.org/2000/svg">

<!--Pour les lignes horizontales : -->

<line x1="0" y1="70" x2="3000" y2="70" stroke="#EFEFEF" stroke-width="3"/>
<line x1="0" y1="120" x2="3000" y2="120" stroke="#EFEFEF" stroke-width="3"/>

<!--Pour les lignes courbées : -->


<path d="M3000 91.5C1829 91 508 92.3345 467 92.3345C426 92.3345 434.5 193.335 434.5 193.335C434.5 208.334 403.5 220.834 399.5 193.335L395 15.8345C395 4.83449 370 -11.1655 359 15.8345L354 132.835C359 143.335 326 167.335 319.5 132.835L315 54.3345C315 39.8345 290 23.8345 278.5 54.3345C278.5 54.3345 283.5 92.3345 255.5 92.3345C227.5 92.3345 100 92.3345 0 92.3345" stroke="#2DB4AB" stroke-width="3"/>
<path d="M0 148C103.5 148 1289.87 148.58 1337.25 148.58C1384.63 148.58 1374.81 53.1981 1374.81 53.1981C1374.81 39.0325 1410.64 27.2278 1415.26 53.1981L1420.46 220.825C1420.46 231.213 1449.35 246.323 1462.07 220.825L1467.84 110.333C1462.07 100.417 1500.2 77.752 1507.72 110.333L1512.92 184.467C1512.92 198.16 1541.81 213.27 1555.1 184.467C1555.1 184.467 1549.32 148.58 1581.68 148.58C1614.04 148.58 1829 148.58 3000 148.58" stroke="#EFEFEF" stroke-width="3"/>

</svg>
