<svg width="196" height="201" viewBox="0 0 196 201" fill="none" xmlns="http://www.w3.org/2000/svg">
<path d="M174.612 101.031C174.612 144.789 140.112 180.214 97.6115 180.214C55.1113 180.214 20.6113 144.789 20.6113 101.031C20.6113 57.273 55.1113 21.8477 97.6115 21.8477C140.112 21.8477 174.612 57.273 174.612 101.031Z" stroke="black" stroke-width="2"/>
<line x1="98.1113" x2="98.1113" y2="14.2039" stroke="black"/>
<line y1="-0.5" x2="12.6026" y2="-0.5" transform="matrix(-0.017684 0.999844 -0.999826 -0.0186874 102.292 1.60352)" stroke="black"/>
<line y1="-0.5" x2="8.50264" y2="-0.5" transform="matrix(-0.0786294 0.996904 -0.996544 -0.0830623 106.08 5.72729)" stroke="black"/>
<line y1="-0.5" x2="5.28886" y2="-0.5" transform="matrix(-0.0842881 0.996441 -0.996029 -0.0890352 110.314 9.62195)" stroke="black"/>
<line y1="-0.5" x2="3.91984" y2="-0.5" transform="matrix(-0.113702 0.993515 -0.992766 -0.120065 114.104 11.684)" stroke="black"/>
<line y1="-0.5" x2="3.99533" y2="-0.5" transform="matrix(-0.223118 0.974791 -0.971971 -0.2351 118.337 12.6001)" stroke="black"/>
<line y1="-0.5" x2="5.49526" y2="-0.5" transform="matrix(-0.283882 0.958859 -0.95438 -0.298593 122.794 12.3712)" stroke="black"/>
<line y1="-0.5" x2="9.17503" y2="-0.5" transform="matrix(-0.315765 0.948838 -0.943363 -0.331762 127.697 10.0802)" stroke="black"/>
<line y1="-0.5" x2="12.5863" y2="-0.5" transform="matrix(-0.371834 0.928299 -0.920897 -0.389806 133.046 8.47668)" stroke="black"/>
<line y1="-0.5" x2="14.2862" y2="-0.5" transform="matrix(-0.405587 0.914057 -0.905404 -0.42455 137.949 8.70581)" stroke="black"/>
<line y1="-0.5" x2="12.6329" y2="-0.5" transform="matrix(-0.458669 0.888607 -0.877893 -0.478858 141.292 12.3712)" stroke="black"/>
<line y1="-0.5" x2="8.57965" y2="-0.5" transform="matrix(-0.519503 0.854468 -0.841318 -0.54054 143.52 17.8694)" stroke="black"/>
<line y1="-0.5" x2="5.2288" y2="-0.5" transform="matrix(-0.554075 0.832467 -0.817939 -0.575305 145.303 22.9095)" stroke="black"/>
<line y1="-0.5" x2="3.90558" y2="-0.5" transform="matrix(-0.570614 0.821218 -0.806042 -0.591858 148.2 26.3459)" stroke="black"/>
<line y1="-0.5" x2="4.2212" y2="-0.5" transform="matrix(-0.580743 0.814087 -0.798519 -0.60197 151.32 28.6367)" stroke="black"/>
<line y1="-0.5" x2="5.30846" y2="-0.5" transform="matrix(-0.629724 0.776819 -0.759439 -0.650578 155.555 30.4697)" stroke="black"/>
<line y1="-0.5" x2="8.64418" y2="-0.5" transform="matrix(-0.670313 0.742079 -0.72335 -0.690481 160.68 30.6986)" stroke="black"/>
<line y1="-0.5" x2="12.3016" y2="-0.5" transform="matrix(-0.706531 0.707682 -0.687922 -0.725785 166.475 31.1571)" stroke="black"/>
<line y1="-0.5" x2="14.069" y2="-0.5" transform="matrix(-0.744494 0.667629 -0.647024 -0.762469 170.709 33.4478)" stroke="black"/>
<line y1="-0.5" x2="12.523" y2="-0.5" transform="matrix(-0.783021 0.621996 -0.600864 -0.799351 172.714 38.0298)" stroke="black"/>
<line y1="-0.5" x2="9.36187" y2="-0.5" transform="matrix(0.809365 -0.587306 0.566061 0.824363 165.138 49.2554)" stroke="black"/>
<line y1="-0.5" x2="5.80616" y2="-0.5" transform="matrix(0.806042 -0.591858 0.570614 0.821218 167.589 52.6918)" stroke="black"/>
<line y1="-0.5" x2="4.23826" y2="-0.5" transform="matrix(0.841318 -0.54054 0.519503 0.854468 169.595 55.899)" stroke="black"/>
<line y1="-0.5" x2="3.9276" y2="-0.5" transform="matrix(0.851123 -0.524966 0.504084 0.863654 171.6 59.3357)" stroke="black"/>
<line y1="-0.5" x2="5.5126" y2="-0.5" transform="matrix(0.889393 -0.457143 0.437394 0.89927 173.383 63.0011)" stroke="black"/>
<line y1="-0.5" x2="8.82058" y2="-0.5" transform="matrix(0.909564 -0.415565 0.396843 0.917887 175.166 66.6666)" stroke="black"/>
<line y1="-0.5" x2="12.1707" y2="-0.5" transform="matrix(0.933858 -0.357645 0.340721 0.940164 176.726 70.3319)" stroke="black"/>
<line y1="-0.5" x2="14.0621" y2="-0.5" transform="matrix(0.950886 -0.309541 0.294394 0.955684 178.063 74.2268)" stroke="black"/>
<line y1="-0.5" x2="12.5153" y2="-0.5" transform="matrix(-0.961565 0.274577 -0.260859 -0.965377 191.212 74.6849)" stroke="black"/>
<line y1="-0.5" x2="8.6191" y2="-0.5" transform="matrix(0.982538 -0.18606 0.176386 0.984321 180.069 81.7869)" stroke="black"/>
<line y1="-0.5" x2="5.64606" y2="-0.5" transform="matrix(0.986742 -0.162297 0.153792 0.988103 180.515 85.9106)" stroke="black"/>
<line y1="-0.5" x2="4.03682" y2="-0.5" transform="matrix(0.99354 -0.113483 0.10746 0.994209 181.183 89.8051)" stroke="black"/>
<line y1="-0.5" x2="4.01887" y2="-0.5" transform="matrix(0.998373 -0.0570175 0.0539643 0.998543 181.629 94.1581)" stroke="black"/>
<line x1="181.852" y1="97.3237" x2="187.423" y2="97.3237" stroke="black"/>
<line x1="181.852" y1="101.447" x2="190.766" y2="101.447" stroke="black"/>
<line y1="-0.5" x2="12.0442" y2="-0.5" transform="matrix(0.999276 0.0380461 -0.0360053 0.999352 182.075 105.842)" stroke="black"/>
<line y1="-0.5" x2="13.6883" y2="-0.5" transform="matrix(0.993114 0.117153 -0.110941 0.993827 181.406 109.966)" stroke="black"/>
<line y1="-0.5" x2="11.9528" y2="-0.5" transform="matrix(0.988175 0.153333 -0.145276 0.989391 181.183 114.089)" stroke="black"/>
<line y1="-0.5" x2="8.71598" y2="-0.5" transform="matrix(0.971617 0.23656 -0.224512 0.974471 180.515 117.984)" stroke="black"/>
<line y1="-0.5" x2="5.30684" y2="-0.5" transform="matrix(0.965872 0.259019 -0.245971 0.969277 179.623 121.878)" stroke="black"/>
<line y1="-0.5" x2="4.03024" y2="-0.5" transform="matrix(0.94004 0.341064 -0.324726 0.945808 178.731 125.773)" stroke="black"/>
<line y1="-0.5" x2="3.95796" y2="-0.5" transform="matrix(0.957205 0.28941 -0.275073 0.961423 177.395 129.897)" stroke="black"/>
<line y1="-0.5" x2="4.91096" y2="-0.5" transform="matrix(0.907594 0.419848 -0.40101 0.916074 176.058 133.562)" stroke="black"/>
<line y1="-0.5" x2="8.62661" y2="-0.5" transform="matrix(0.878348 0.478022 -0.457849 0.88903 174.498 136.999)" stroke="black"/>
<line y1="-0.5" x2="12.2437" y2="-0.5" transform="matrix(0.873685 0.486491 -0.466165 0.884698 172.714 140.664)" stroke="black"/>
<line y1="-0.5" x2="13.7822" y2="-0.5" transform="matrix(0.85701 0.515299 -0.494535 0.869158 170.709 144.33)" stroke="black"/>
<line y1="-0.5" x2="12.3421" y2="-0.5" transform="matrix(0.830606 0.55686 -0.535706 0.844405 168.48 147.766)" stroke="black"/>
<line y1="-0.5" x2="8.82948" y2="-0.5" transform="matrix(0.782446 0.622719 -0.601592 0.798804 166.697 150.974)" stroke="black"/>
<line y1="-0.5" x2="5.3119" y2="-0.5" transform="matrix(0.797135 0.603801 -0.58258 0.812773 164.246 154.41)" stroke="black"/>
<line y1="-0.5" x2="3.83531" y2="-0.5" transform="matrix(0.697282 0.716797 -0.697282 0.716797 161.572 157.388)" stroke="black"/>
<line y1="-0.5" x2="3.68338" y2="-0.5" transform="matrix(0.665539 0.746363 -0.727784 0.685807 159.12 160.596)" stroke="black"/>
<line y1="-0.5" x2="5.75297" y2="-0.5" transform="matrix(0.697282 0.716797 -0.697282 0.716797 155.777 163.116)" stroke="black"/>
<line y1="-0.5" x2="8.98944" y2="-0.5" transform="matrix(0.644568 0.764547 -0.746655 0.665212 153.326 165.865)" stroke="black"/>
<line y1="-0.5" x2="12.2473" y2="-0.5" transform="matrix(0.618681 0.785642 -0.768657 0.639661 150.206 168.614)" stroke="black"/>
<line y1="-0.5" x2="14.6163" y2="-0.5" transform="matrix(0.579395 0.815047 -0.799531 0.600625 147.309 170.905)" stroke="black"/>
<line y1="-0.5" x2="12.915" y2="-0.5" transform="matrix(0.552186 0.833721 -0.819268 0.573411 143.743 173.196)" stroke="black"/>
<line y1="-0.5" x2="9.06768" y2="-0.5" transform="matrix(0.466966 0.884275 -0.873231 0.487307 140.623 175.487)" stroke="black"/>
<line y1="-0.5" x2="5.19648" y2="-0.5" transform="matrix(0.47175 0.881733 -0.870497 0.492173 137.28 177.778)" stroke="black"/>
<line y1="-0.5" x2="3.77394" y2="-0.5" transform="matrix(0.413362 0.910567 -0.901619 0.432531 133.714 179.381)" stroke="black"/>
<line y1="-0.5" x2="3.77394" y2="-0.5" transform="matrix(0.413362 0.910567 -0.901619 0.432531 129.926 181.214)" stroke="black"/>
<line y1="-0.5" x2="5.21235" y2="-0.5" transform="matrix(0.384801 0.922999 -0.915124 0.403173 126.36 182.589)" stroke="black"/>
<line y1="-0.5" x2="8.60404" y2="-0.5" transform="matrix(0.284917 0.958552 -0.954042 0.299672 122.794 184.192)" stroke="black"/>
<line y1="-0.5" x2="12.4829" y2="-0.5" transform="matrix(0.23209 0.972694 -0.96965 0.244495 119.229 184.651)" stroke="black"/>
<line y1="-0.5" x2="14.0034" y2="-0.5" transform="matrix(0.190974 0.981595 -0.979512 0.201385 115.217 186.025)" stroke="black"/>
<line y1="-0.5" x2="12.7257" y2="-0.5" transform="matrix(0.140099 0.990138 -0.989005 0.147881 111.206 186.483)" stroke="black"/>
<line y1="-0.5" x2="9.20719" y2="-0.5" transform="matrix(0.0968204 0.995302 -0.994758 0.10226 107.417 186.942)" stroke="black"/>
<line y1="-0.5" x2="5.73252" y2="-0.5" transform="matrix(0.0388816 0.999244 -0.999156 0.0410848 103.629 187.171)" stroke="black"/>
<line x1="100.117" y1="187.4" x2="100.117" y2="191.524" stroke="black"/>
<line x1="96.1055" y1="187.4" x2="96.1055" y2="191.524" stroke="black"/>
<line y1="-0.5" x2="5.74548" y2="-0.5" transform="matrix(-0.0775874 0.996985 -0.996635 -0.0819623 91.5947 187.171)" stroke="black"/>
<line y1="-0.5" x2="9.2313" y2="-0.5" transform="matrix(-0.120708 0.992688 -0.991845 -0.127451 88.0283 186.942)" stroke="black"/>
<line y1="-0.5" x2="12.7589" y2="-0.5" transform="matrix(-0.157202 0.987566 -0.986145 -0.165886 84.2402 186.483)" stroke="black"/>
<line y1="-0.5" x2="14.4963" y2="-0.5" transform="matrix(-0.199854 0.979826 -0.977549 -0.210707 80.2285 185.796)" stroke="black"/>
<line y1="-0.5" x2="12.7585" y2="-0.5" transform="matrix(-0.244544 0.969638 -0.966271 -0.257526 76.4399 184.651)" stroke="black"/>
<line y1="-0.5" x2="8.88837" y2="-0.5" transform="matrix(-0.300876 0.953664 -0.948664 -0.316286 72.874 183.734)" stroke="black"/>
<line y1="-0.5" x2="5.51082" y2="-0.5" transform="matrix(-0.404401 0.914582 -0.905975 -0.423332 69.0859 182.36)" stroke="black"/>
<line y1="-0.5" x2="3.98367" y2="-0.5" transform="matrix(-0.3916 0.920136 -0.912009 -0.410171 65.2969 180.985)" stroke="black"/>
<line y1="-0.5" x2="4.2833" y2="-0.5" transform="matrix(-0.416236 0.909257 -0.900199 -0.435479 61.5088 178.923)" stroke="black"/>
<line y1="-0.5" x2="5.61597" y2="-0.5" transform="matrix(-0.515877 0.856663 -0.843658 -0.536881 58.1655 177.549)" stroke="black"/>
<line y1="-0.5" x2="9.08706" y2="-0.5" transform="matrix(-0.51502 0.857178 -0.844208 -0.536016 54.8228 175.487)" stroke="black"/>
<line y1="-0.5" x2="12.4101" y2="-0.5" transform="matrix(-0.556692 0.830719 -0.816088 -0.577928 51.48 173.425)" stroke="black"/>
<line y1="-0.5" x2="14.4883" y2="-0.5" transform="matrix(-0.569131 0.822247 -0.807128 -0.590376 47.9141 170.905)" stroke="black"/>
<line y1="-0.5" x2="12.2473" y2="-0.5" transform="matrix(-0.618681 0.785642 -0.768657 -0.639661 45.0171 168.614)" stroke="black"/>
<line y1="-0.5" x2="9.13468" y2="-0.5" transform="matrix(-0.658716 0.752391 -0.73403 -0.679117 42.1201 165.865)" stroke="black"/>
<line y1="-0.5" x2="5.43336" y2="-0.5" transform="matrix(-0.697282 0.716797 -0.697282 -0.716797 39 163.345)" stroke="black"/>
<line y1="-0.5" x2="4.15492" y2="-0.5" transform="matrix(-0.697282 0.716797 -0.697282 -0.716797 36.3257 160.366)" stroke="black"/>
<line y1="-0.5" x2="4.15839" y2="-0.5" transform="matrix(-0.750292 0.661106 -0.640399 -0.768042 33.6514 157.159)" stroke="black"/>
<line y1="-0.5" x2="5.62808" y2="-0.5" transform="matrix(-0.79195 0.610586 -0.589391 -0.807848 31.1997 154.181)" stroke="black"/>
<line y1="-0.5" x2="8.91562" y2="-0.5" transform="matrix(-0.824879 0.56531 -0.544113 -0.839012 28.9712 150.974)" stroke="black"/>
<line y1="-0.5" x2="12.2825" y2="-0.5" transform="matrix(-0.852786 0.522261 -0.501411 -0.865209 26.7427 147.766)" stroke="black"/>
<line y1="-0.5" x2="14.2822" y2="-0.5" transform="matrix(-0.858211 0.513297 -0.492559 -0.870279 24.7368 144.101)" stroke="black"/>
<line y1="-0.5" x2="12.2261" y2="-0.5" transform="matrix(-0.893172 0.449716 -0.430133 -0.902766 22.7314 140.893)" stroke="black"/>
<line y1="-0.5" x2="9.02062" y2="-0.5" transform="matrix(-0.889393 0.457143 -0.437394 -0.89927 20.9482 136.77)" stroke="black"/>
<line y1="-0.5" x2="5.5126" y2="-0.5" transform="matrix(-0.889393 0.457143 -0.437394 -0.89927 19.3882 133.104)" stroke="black"/>
<line y1="-0.5" x2="3.61444" y2="-0.5" transform="matrix(0.924864 -0.380299 0.362625 0.931935 14.7085 131.042)" stroke="black"/>
<line y1="-0.5" x2="4.24041" y2="-0.5" transform="matrix(-0.946002 0.32416 -0.308448 -0.951241 16.937 125.315)" stroke="black"/>
<line y1="-0.5" x2="5.30684" y2="-0.5" transform="matrix(-0.965872 0.259019 -0.245971 -0.969277 15.8228 121.878)" stroke="black"/>
<line y1="-0.5" x2="9.14966" y2="-0.5" transform="matrix(-0.974278 0.225348 -0.213813 -0.976875 15.1543 117.755)" stroke="black"/>
<line y1="-0.5" x2="12.6492" y2="-0.5" transform="matrix(-0.986626 0.163003 -0.154462 -0.987999 14.2627 113.86)" stroke="black"/>
<line y1="-0.5" x2="13.9096" y2="-0.5" transform="matrix(-0.993332 0.115289 -0.109173 -0.994023 13.8169 109.966)" stroke="black"/>
<line y1="-0.5" x2="12.2759" y2="-0.5" transform="matrix(-0.998432 0.0559841 -0.0529859 -0.998595 13.5942 105.842)" stroke="black"/>
<line x1="13.1484" y1="102.447" x2="4.45698" y2="102.447" stroke="black"/>
<line x1="13.3711" y1="98.3237" x2="8.02251" y2="98.3237" stroke="black"/>
<line y1="-0.5" x2="4.46384" y2="-0.5" transform="matrix(-0.998682 -0.0513316 0.0485813 -0.998819 13.8169 93.7)" stroke="black"/>
<line y1="-0.5" x2="4.28986" y2="-0.5" transform="matrix(-0.987082 -0.160217 0.151816 -0.988409 14.4854 89.8051)" stroke="black"/>
<line y1="-0.5" x2="5.39268" y2="-0.5" transform="matrix(-0.991845 -0.127451 0.120708 -0.992688 14.7085 85.6816)" stroke="black"/>
<line y1="-0.5" x2="8.22956" y2="-0.5" transform="matrix(-0.974886 -0.222705 0.211292 -0.977423 15.377 81.7869)" stroke="black"/>
<line y1="-0.5" x2="12.2392" y2="-0.5" transform="matrix(-0.965053 -0.262054 0.248874 -0.968536 16.4912 77.8922)" stroke="black"/>
<line y1="-0.5" x2="13.8504" y2="-0.5" transform="matrix(-0.949333 -0.314274 0.298941 -0.954272 17.8281 73.9979)" stroke="black"/>
<line y1="-0.5" x2="12.342" y2="-0.5" transform="matrix(-0.920897 -0.389806 0.371834 -0.928299 18.7197 70.3319)" stroke="black"/>
<line y1="-0.5" x2="8.61838" y2="-0.5" transform="matrix(-0.905046 -0.425315 0.406331 -0.913726 20.0571 66.4376)" stroke="black"/>
<line y1="-0.5" x2="5.31537" y2="-0.5" transform="matrix(-0.880468 -0.474105 0.454007 -0.890998 21.8398 63.0011)" stroke="black"/>
<line y1="-0.5" x2="3.73975" y2="-0.5" transform="matrix(-0.834284 -0.551336 0.530215 -0.847863 23.1768 59.3357)" stroke="black"/>
<line y1="-0.5" x2="3.61849" y2="-0.5" transform="matrix(-0.862241 -0.506499 0.485854 -0.87404 25.6284 55.6702)" stroke="black"/>
<line y1="-0.5" x2="5.13601" y2="-0.5" transform="matrix(-0.781042 -0.624479 0.603364 -0.797466 27.6338 52.6918)" stroke="black"/>
<line y1="-0.5" x2="8.82948" y2="-0.5" transform="matrix(-0.782446 -0.622719 0.601592 -0.798804 30.0854 49.0262)" stroke="black"/>
<line y1="-0.5" x2="12.3089" y2="-0.5" transform="matrix(-0.742325 -0.67004 0.649476 -0.760382 32.3145 46.0481)" stroke="black"/>
<line y1="-0.5" x2="13.898" y2="-0.5" transform="matrix(-0.721584 -0.692327 0.672199 -0.74037 34.7656 42.8407)" stroke="black"/>
<line y1="-0.5" x2="12.3104" y2="-0.5" transform="matrix(-0.687922 -0.725785 0.706531 -0.707682 37.6626 40.0916)" stroke="black"/>
<line y1="-0.5" x2="9.30827" y2="-0.5" transform="matrix(-0.646432 -0.762972 0.745017 -0.667046 40.7827 37.3425)" stroke="black"/>
<line y1="-0.5" x2="5.45155" y2="-0.5" transform="matrix(-0.654076 -0.756429 0.73822 -0.674561 43.6797 34.3645)" stroke="black"/>
<line y1="-0.5" x2="3.85739" y2="-0.5" transform="matrix(-0.635517 -0.772087 0.754505 -0.656295 46.7998 31.8441)" stroke="black"/>
<line y1="-0.5" x2="4.53739" y2="-0.5" transform="matrix(-0.589391 -0.807848 0.79195 -0.610586 50.1426 29.7823)" stroke="black"/>
<line y1="-0.5" x2="5.2288" y2="-0.5" transform="matrix(-0.554075 -0.832467 0.817939 -0.575305 53.0396 27.2623)" stroke="black"/>
<line y1="-0.5" x2="8.97432" y2="-0.5" transform="matrix(-0.496657 -0.867947 0.855714 -0.517449 56.6055 25.2007)" stroke="black"/>
<line y1="-0.5" x2="12.8369" y2="-0.5" transform="matrix(-0.45138 -0.892332 0.881906 -0.471426 60.1714 23.5968)" stroke="black"/>
<line y1="-0.5" x2="14.0771" y2="-0.5" transform="matrix(-0.411611 -0.911359 0.902479 -0.430735 63.7373 21.535)" stroke="black"/>
<line y1="-0.5" x2="12.7194" y2="-0.5" transform="matrix(-0.350421 -0.936593 0.929951 -0.367684 67.0801 20.1603)" stroke="black"/>
<line y1="-0.5" x2="9.17503" y2="-0.5" transform="matrix(-0.315765 -0.948838 0.943363 -0.331762 70.8687 18.7858)" stroke="black"/>
<line y1="-0.5" x2="5.38572" y2="-0.5" transform="matrix(-0.206897 -0.978363 0.975927 -0.218096 74.4341 17.411)" stroke="black"/>
<line y1="-0.5" x2="3.99533" y2="-0.5" transform="matrix(-0.223118 -0.974791 0.971971 -0.2351 78.2227 16.4948)" stroke="black"/>
<line y1="-0.5" x2="4.40385" y2="-0.5" transform="matrix(-0.151816 -0.988409 0.987082 -0.160217 82.2344 15.8075)" stroke="black"/>
<line y1="-0.5" x2="5.34406" y2="-0.5" transform="matrix(-0.166808 -0.985989 0.984392 -0.17599 86.2456 14.8912)" stroke="black"/>
<line y1="-0.5" x2="9.20719" y2="-0.5" transform="matrix(-0.0968204 -0.995302 0.994758 -0.10226 90.0342 14.6624)" stroke="black"/>
<line y1="-0.5" x2="12.6096" y2="-0.5" transform="matrix(-0.0353515 -0.999375 0.999302 -0.0373553 93.8228 14.2036)" stroke="black"/>
<line y1="-0.5" x2="11.2849" y2="-0.5" transform="matrix(-0.64339 0.765539 -0.859486 -0.51116 113.183 57.3287)" stroke="#2DB4AB"/>
<line y1="-0.5" x2="6.91014" y2="-0.5" transform="matrix(0.608207 0.729382 -1.01305 0.351127 113.183 57.3287)" stroke="#2DB4AB"/>
<line y1="-0.5" x2="6.91014" y2="-0.5" transform="matrix(0.608207 0.729382 -1.01305 0.351127 111.617 59.1923)" stroke="#2DB4AB"/>
<line y1="-0.5" x2="2.65527" y2="-0.5" transform="matrix(-0.643389 0.765539 -0.859485 -0.51116 117.528 62.1997)" stroke="#2DB4AB"/>
<path d="M105.759 65.8709C105.452 66.2369 104.925 66.466 104.259 66.4951C103.593 66.5243 102.825 66.3478 102.132 65.9355C101.438 65.5232 100.984 64.9731 100.795 64.4353C100.605 63.8975 100.687 63.4034 100.994 63.0374C101.302 62.6714 101.829 62.4423 102.495 62.4131C103.161 62.384 103.929 62.5605 104.622 62.9728C105.315 63.3851 105.769 63.9352 105.959 64.473C106.148 65.0108 106.067 65.5049 105.759 65.8709Z" stroke="#2DB4AB"/>
<line y1="-0.5" x2="9.60264" y2="-0.5" transform="matrix(0.996887 -0.0998811 0.145355 0.986623 116.56 74.1249)" stroke="#2DB4AB"/>
<line y1="-0.5" x2="6.60041" y2="-0.5" transform="matrix(0.0437889 -0.999041 0.999577 0.0290838 116.28 80.5112)" stroke="#2DB4AB"/>
<line y1="-0.5" x2="6.56746" y2="-0.5" transform="matrix(0.997162 -0.0966212 0.140652 0.987371 117.945 76.8469)" stroke="#2DB4AB"/>
<line y1="-0.5" x2="5.77536" y2="-0.5" transform="matrix(-0.0437893 0.999041 -0.999577 -0.0290835 117.945 76.8469)" stroke="#2DB4AB"/>
<line y1="-0.5" x2="3.50647" y2="-0.5" transform="matrix(-0.0437881 0.999041 -0.999577 -0.0290843 124.503 76.0063)" stroke="#2DB4AB"/>
<line y1="-0.5" x2="8.45627" y2="-0.5" transform="matrix(-0.0437891 0.999041 -0.999577 -0.0290836 126.141 72.9598)" stroke="#2DB4AB"/>
<line y1="-0.5" x2="0.618788" y2="-0.5" transform="matrix(-0.0437946 0.999041 -0.999577 -0.02908 117.034 74.7577)" stroke="#2DB4AB"/>
<line y1="-0.5" x2="0.618788" y2="-0.5" transform="matrix(-0.0437946 0.999041 -0.999577 -0.02908 118.295 74.5881)" stroke="#2DB4AB"/>
<line y1="-0.5" x2="0.618788" y2="-0.5" transform="matrix(-0.0437946 0.999041 -0.999577 -0.02908 119.557 74.4185)" stroke="#2DB4AB"/>
<line y1="-0.5" x2="0.618788" y2="-0.5" transform="matrix(-0.0437823 0.999041 -0.999577 -0.0290882 120.818 74.2488)" stroke="#2DB4AB"/>
<line y1="-0.5" x2="0.618788" y2="-0.5" transform="matrix(-0.0437823 0.999041 -0.999577 -0.0290882 122.08 74.0793)" stroke="#2DB4AB"/>
<line y1="-0.5" x2="0.618788" y2="-0.5" transform="matrix(-0.0437823 0.999041 -0.999577 -0.0290882 123.341 73.9098)" stroke="#2DB4AB"/>
<line y1="-0.5" x2="0.618788" y2="-0.5" transform="matrix(-0.0437823 0.999041 -0.999577 -0.0290882 124.603 73.7404)" stroke="#2DB4AB"/>
<path d="M124.377 79.3319C118.359 79.4801 122.541 84.6749 125.849 81.408" stroke="#2DB4AB"/>
<path d="M116.3 80.5119C110.28 80.5435 114.312 85.8179 117.713 82.6159" stroke="#2DB4AB"/>
<path d="M117.695 82.6742C117.714 82.6732 117.727 82.6516 117.738 82.6417C117.75 82.631 117.765 82.6218 117.778 82.6116C117.786 82.6052 117.792 82.5979 117.801 82.5916" stroke="#2DB4AB" stroke-width="0.25" stroke-linecap="round"/>
<path d="M117.713 82.6181C117.737 82.5987 117.753 82.5752 117.772 82.5529C117.776 82.5491 117.78 82.5482 117.784 82.5464" stroke="#2DB4AB" stroke-width="0.25" stroke-linecap="round"/>
<path d="M117.69 82.7008C117.711 82.6921 117.736 82.6909 117.756 82.6813C117.759 82.68 117.769 82.6754 117.769 82.6727C117.77 82.6679 117.777 82.663 117.782 82.6598C117.787 82.656 117.785 82.6506 117.788 82.6451C117.79 82.642 117.793 82.6323 117.796 82.6306C117.798 82.6293 117.803 82.6255 117.805 82.6234C117.807 82.6205 117.809 82.6168 117.812 82.6142C117.817 82.6101 117.824 82.6096 117.829 82.605C117.845 82.5873 117.859 82.5649 117.866 82.5434" stroke="#2DB4AB" stroke-width="0.25" stroke-linecap="round"/>
<path d="M117.674 82.6611C117.702 82.6603 117.732 82.6519 117.76 82.6474C117.77 82.6457 117.781 82.6432 117.792 82.6417C117.806 82.6397 117.817 82.6348 117.828 82.6285C117.837 82.624 117.847 82.6261 117.855 82.6225C117.859 82.6202 117.862 82.6186 117.866 82.6159C117.871 82.6129 117.878 82.6116 117.882 82.6073C117.888 82.598 117.858 82.6178 117.847 82.6228C117.827 82.6313 117.806 82.6348 117.786 82.6433C117.77 82.6504 117.749 82.6605 117.736 82.6709C117.733 82.6731 117.731 82.6773 117.728 82.6787C117.722 82.681 117.719 82.6819 117.715 82.6859C117.713 82.6891 117.703 82.6983 117.705 82.6947C117.711 82.6843 117.722 82.6756 117.73 82.6663C117.748 82.6455 117.772 82.6272 117.794 82.6092" stroke="#2DB4AB" stroke-width="0.25" stroke-linecap="round"/>
<path d="M117.663 82.6053C117.687 82.5808 117.712 82.5572 117.74 82.5361C117.748 82.5304 117.758 82.5227 117.767 82.5186C117.781 82.5125 117.757 82.5314 117.756 82.532C117.725 82.5575 117.699 82.5859 117.67 82.6131C117.662 82.6209 117.655 82.6314 117.646 82.6378C117.626 82.6505 117.657 82.608 117.658 82.607C117.68 82.5715 117.704 82.5369 117.735 82.5064C117.738 82.5035 117.741 82.4996 117.744 82.4969C117.748 82.4942 117.744 82.5012 117.744 82.5018C117.736 82.5094 117.724 82.5138 117.715 82.521C117.698 82.5349 117.685 82.5527 117.674 82.5698C117.655 82.5985 117.637 82.6271 117.613 82.6532C117.612 82.6539 117.601 82.666 117.603 82.6597C117.603 82.6561 117.609 82.6539 117.612 82.6515C117.629 82.6365 117.641 82.6152 117.653 82.5973C117.676 82.562 117.697 82.5261 117.722 82.4915C117.75 82.4519 117.781 82.4136 117.812 82.3753C117.842 82.3385 117.871 82.3009 117.894 82.2613C117.897 82.2566 117.9 82.2525 117.9 82.2473C117.901 82.2453 117.9 82.2512 117.9 82.2531C117.899 82.2571 117.895 82.2595 117.894 82.2633C117.883 82.2948 117.865 82.3258 117.849 82.3557C117.831 82.3895 117.811 82.4205 117.783 82.4488C117.763 82.4681 117.745 82.4878 117.729 82.5088C117.717 82.5233 117.707 82.5344 117.692 82.5463C117.681 82.5554 117.669 82.5629 117.659 82.5729C117.642 82.5885 117.628 82.6031 117.615 82.6208C117.609 82.6296 117.604 82.6221 117.609 82.615C117.618 82.6016 117.622 82.5865 117.631 82.5728C117.653 82.5384 117.689 82.5112 117.715 82.4788C117.737 82.4504 117.762 82.4181 117.777 82.3864C117.786 82.3687 117.793 82.3496 117.8 82.3315C117.803 82.3236 117.804 82.3158 117.804 82.3076" stroke="#2DB4AB" stroke-width="0.25" stroke-linecap="round"/>
<path d="M117.601 82.632C117.627 82.5966 117.654 82.5617 117.681 82.5266C117.691 82.5139 117.703 82.5022 117.711 82.4892C117.729 82.4639 117.74 82.4357 117.754 82.4089C117.786 82.3447 117.817 82.2802 117.85 82.2164C117.863 82.1914 117.877 82.1664 117.887 82.1407C117.899 82.1113 117.905 82.0801 117.913 82.0499" stroke="#2DB4AB" stroke-width="0.25" stroke-linecap="round"/>
<path d="M117.606 82.6162C117.659 82.5303 117.726 82.4448 117.75 82.3492C117.762 82.2987 117.768 82.2462 117.766 82.1948C117.764 82.163 117.764 82.1311 117.765 82.0993" stroke="#2DB4AB" stroke-width="0.25" stroke-linecap="round"/>
<path d="M118.158 76.7843C118.157 76.8062 118.156 76.8284 118.152 76.8501C118.149 76.8653 118.145 76.8803 118.143 76.8955C118.142 76.899 118.142 76.9089 118.137 76.9112C118.136 76.9117 118.135 76.9134 118.134 76.9129C118.132 76.9117 118.133 76.9091 118.133 76.9072C118.13 76.894 118.128 76.8808 118.126 76.8674C118.123 76.8411 118.121 76.8147 118.121 76.7883C118.12 76.7862 118.121 76.7848 118.12 76.788C118.12 76.7942 118.119 76.8 118.117 76.806C118.107 76.8336 118.097 76.8611 118.087 76.8885C118.084 76.8965 118.083 76.9004 118.078 76.8896C118.066 76.8659 118.063 76.8418 118.061 76.8167C118.061 76.8115 118.061 76.8107 118.061 76.8163C118.061 76.8238 118.06 76.8311 118.058 76.8383C118.055 76.8465 118.053 76.855 118.052 76.8633C118.052 76.8652 118.051 76.8657 118.049 76.8637C118.044 76.857 118.042 76.8483 118.041 76.8404C118.04 76.8289 118.038 76.8168 118.038 76.8053C118.039 76.7922 118.032 76.8309 118.028 76.8436C118.027 76.8471 118.028 76.859 118.025 76.8614C118.023 76.8638 118.015 76.836 118.014 76.8335C118.014 76.8323 118.009 76.816 118.009 76.817C118.003 76.8254 118.004 76.8396 118.001 76.8491C118 76.8523 118 76.8572 117.999 76.8601C117.995 76.8671 117.996 76.845 117.996 76.8374C117.996 76.8366 117.995 76.8232 117.995 76.8289C117.995 76.8346 117.995 76.8403 117.994 76.846C117.994 76.8532 117.992 76.8648 117.994 76.8501C117.995 76.8461 117.996 76.8425 117.996 76.8384C117.997 76.8295 117.991 76.8426 117.99 76.8453C117.988 76.8508 117.984 76.8568 117.983 76.8626C117.983 76.863 117.981 76.87 117.98 76.8671C117.977 76.8622 117.98 76.8508 117.98 76.8453C117.98 76.8387 117.979 76.8444 117.986 76.8446" stroke="#2DB4AB" stroke-width="0.25" stroke-linecap="round"/>
<path d="M118.165 76.7873C118.165 76.7985 118.16 76.8091 118.158 76.8202C118.156 76.8272 118.157 76.8344 118.155 76.8414C118.153 76.8495 118.153 76.8573 118.153 76.8654C118.153 76.8657 118.15 76.8706 118.151 76.8705C118.156 76.8697 118.157 76.8551 118.157 76.8524C118.16 76.8381 118.163 76.8225 118.171 76.8093C118.172 76.8074 118.173 76.8017 118.174 76.8006C118.175 76.8001 118.179 76.7986 118.179 76.7988C118.174 76.8073 118.173 76.8183 118.17 76.8274C118.165 76.8429 118.156 76.8596 118.156 76.8756" stroke="#2DB4AB" stroke-width="0.25" stroke-linecap="round"/>
<path d="M124.462 76.1331C124.497 76.1219 124.532 76.1097 124.566 76.0957C124.566 76.0956 124.572 76.093 124.569 76.0958C124.567 76.098 124.563 76.1002 124.561 76.1018C124.546 76.1099 124.531 76.1167 124.516 76.1238C124.489 76.137 124.462 76.1502 124.435 76.1646C124.423 76.1709 124.409 76.1767 124.399 76.1841C124.399 76.1843 124.397 76.1856 124.398 76.1851C124.415 76.1796 124.432 76.1721 124.448 76.1659C124.465 76.1595 124.482 76.1522 124.499 76.1467C124.505 76.1446 124.512 76.1432 124.519 76.141C124.519 76.1409 124.52 76.1405 124.52 76.1406C124.514 76.1432 124.51 76.1475 124.506 76.1512C124.501 76.1558 124.496 76.1603 124.492 76.1653C124.491 76.1665 124.488 76.169 124.487 76.1705C124.487 76.1714 124.495 76.1709 124.496 76.1708C124.501 76.17 124.505 76.1681 124.51 76.1667C124.512 76.1661 124.518 76.1646 124.517 76.1661C124.514 76.1694 124.51 76.1712 124.506 76.1735C124.504 76.1749 124.503 76.1763 124.501 76.1778C124.5 76.1784 124.498 76.1787 124.498 76.1797C124.497 76.1806 124.497 76.1834 124.497 76.1825C124.498 76.1718 124.498 76.161 124.499 76.1503C124.499 76.1436 124.501 76.1333 124.497 76.1272C124.49 76.1194 124.488 76.1091 124.485 76.1001C124.482 76.0924 124.479 76.0841 124.478 76.076C124.478 76.0703 124.477 76.0636 124.479 76.0579C124.481 76.0506 124.483 76.0503 124.492 76.0512C124.496 76.0516 124.5 76.0527 124.504 76.053C124.505 76.053 124.509 76.0534 124.506 76.0526C124.501 76.0507 124.494 76.0512 124.488 76.0489C124.487 76.0483 124.487 76.0473 124.486 76.0463C124.484 76.0451 124.482 76.0443 124.48 76.0436C124.477 76.0423 124.478 76.0442 124.481 76.042C124.486 76.0382 124.484 76.0339 124.493 76.0341C124.495 76.0342 124.499 76.0341 124.501 76.0319C124.503 76.0288 124.496 76.0289 124.494 76.0309C124.489 76.0379 124.47 76.0351 124.462 76.0369C124.459 76.0376 124.454 76.0373 124.451 76.0386C124.448 76.0398 124.447 76.04 124.444 76.0399C124.44 76.0398 124.452 76.0403 124.456 76.0395C124.462 76.0383 124.468 76.038 124.474 76.0374C124.485 76.0363 124.496 76.0342 124.507 76.0345C124.509 76.0346 124.511 76.0346 124.514 76.0347C124.515 76.0348 124.504 76.0352 124.502 76.0352C124.498 76.0351 124.49 76.0357 124.487 76.0338C124.484 76.0312 124.481 76.0315 124.477 76.0304C124.477 76.0303 124.479 76.0324 124.481 76.0338C124.488 76.0388 124.487 76.0479 124.486 76.0549" stroke="#2DB4AB" stroke-width="0.25" stroke-linecap="round"/>
<path d="M125.76 81.3787C125.762 81.3758 125.763 81.3714 125.765 81.3681C125.768 81.3599 125.773 81.3519 125.776 81.3436C125.785 81.3192 125.795 81.2949 125.807 81.271C125.82 81.2432 125.826 81.213 125.828 81.1832" stroke="#2DB4AB" stroke-width="0.25" stroke-linecap="round"/>
<path d="M125.872 81.3358C125.867 81.3485 125.861 81.3605 125.855 81.3725C125.848 81.3844 125.84 81.3959 125.834 81.4081C125.827 81.4255 125.824 81.444 125.821 81.4623C125.82 81.469 125.818 81.4762 125.818 81.483C125.818 81.4871 125.824 81.4763 125.827 81.4727C125.849 81.4391 125.875 81.4071 125.896 81.3725C125.9 81.3658 125.904 81.3591 125.907 81.3522C125.908 81.3513 125.909 81.3488 125.909 81.3497C125.91 81.3641 125.904 81.3766 125.897 81.3897C125.888 81.4085 125.879 81.4273 125.871 81.4465C125.87 81.4483 125.866 81.4579 125.872 81.4523C125.883 81.4432 125.891 81.4315 125.9 81.4212C125.91 81.4095 125.921 81.3992 125.934 81.3891C125.944 81.3808 125.955 81.3726 125.964 81.364C125.965 81.3632 125.965 81.3644 125.965 81.3649C125.965 81.3683 125.963 81.3716 125.961 81.3745C125.949 81.3937 125.932 81.4105 125.919 81.429C125.914 81.435 125.909 81.4412 125.906 81.4478C125.905 81.4483 125.903 81.4533 125.905 81.45C125.918 81.4323 125.933 81.4158 125.951 81.4014C125.955 81.3983 125.961 81.3934 125.966 81.3914C125.966 81.3914 125.966 81.3935 125.966 81.3935C125.966 81.3955 125.965 81.3976 125.964 81.3993C125.957 81.407 125.952 81.4146 125.946 81.4226C125.941 81.4288 125.936 81.4365 125.929 81.4411C125.923 81.4451 125.918 81.4511 125.914 81.4566C125.913 81.4583 125.911 81.4623 125.911 81.4643C125.911 81.4666 125.912 81.4597 125.912 81.4574C125.913 81.4539 125.914 81.4514 125.915 81.4481C125.92 81.4397 125.928 81.4329 125.933 81.4248C125.94 81.4143 125.946 81.4036 125.953 81.3928C125.955 81.3886 125.957 81.3839 125.96 81.3803C125.961 81.3796 125.964 81.3755 125.964 81.3757C125.964 81.3776 125.964 81.38 125.964 81.382" stroke="#2DB4AB" stroke-width="0.25" stroke-linecap="round"/>
<path d="M126.124 73.0711C126.105 73.0717 126.086 73.0721 126.067 73.0737C126.051 73.0751 126.089 73.0747 126.091 73.0748C126.117 73.0755 126.144 73.0763 126.171 73.0771C126.175 73.0772 126.184 73.0761 126.188 73.0779C126.194 73.0805 126.165 73.0911 126.163 73.0918C126.152 73.0962 126.141 73.0981 126.13 73.1016C126.121 73.1046 126.123 73.1089 126.131 73.1112C126.138 73.1135 126.139 73.1178 126.145 73.122C126.151 73.1268 126.138 73.1336 126.133 73.1358C126.127 73.1388 126.127 73.1362 126.128 73.1329C126.133 73.1208 126.132 73.108 126.133 73.0954C126.134 73.0678 126.133 73.0396 126.135 73.0117C126.135 73.0061 126.118 73.0029 126.118 72.9957C126.118 72.9938 126.117 72.9874 126.121 72.9873C126.124 72.9872 126.13 72.9866 126.132 72.9892" stroke="#2DB4AB" stroke-width="0.25" stroke-linecap="round"/>
<path d="M126.021 81.4273C126.024 81.422 126.027 81.415 126.032 81.4108C126.033 81.4097 126.034 81.4087 126.035 81.4075C126.043 81.3985 126.022 81.4265 126.014 81.4354C126.013 81.4372 126.012 81.4374 126.01 81.4384C126.008 81.4399 126.014 81.4246 126.014 81.4231C126.016 81.4194 126.017 81.4123 126.021 81.4099C126.023 81.409 126.023 81.405 126.022 81.4071C126.019 81.4138 126.015 81.4199 126.011 81.4264C126.01 81.4278 126.008 81.4299 126.007 81.4314C126.007 81.4323 126.006 81.4336 126.006 81.4317C126.006 81.4298 126.003 81.4296 126.003 81.4276C126.004 81.4222 126.004 81.4185 126.008 81.414C126.011 81.4092 126.016 81.4075 126.018 81.4018C126.019 81.3995 126.023 81.3968 126.025 81.395C126.026 81.3939 126.027 81.39 126.028 81.3887C126.029 81.386 126.033 81.3818 126.033 81.3789C126.033 81.3741 126.038 81.3699 126.041 81.3658C126.043 81.3617 126.047 81.3564 126.05 81.3528C126.057 81.3451 126.056 81.3355 126.061 81.3274C126.063 81.3241 126.064 81.3183 126.067 81.3158" stroke="white" stroke-width="0.1" stroke-linecap="round"/>
<path d="M125.967 81.467C125.966 81.4703 125.96 81.4724 125.959 81.4764C125.959 81.4768 125.954 81.4826 125.954 81.4828C125.952 81.4836 125.952 81.4851 125.951 81.4863C125.949 81.4895 125.945 81.4921 125.943 81.4954C125.939 81.5005 125.94 81.4949 125.942 81.4936C125.944 81.4923 125.948 81.4896 125.948 81.4878C125.95 81.4841 125.951 81.481 125.954 81.4779" stroke="white" stroke-width="0.1" stroke-linecap="round"/>
<path d="M124.334 79.4713C124.351 79.4698 124.369 79.4677 124.386 79.4656C124.392 79.4649 124.398 79.4667 124.403 79.4656C124.429 79.4608 124.453 79.4553 124.48 79.4525C124.538 79.4462 124.596 79.4369 124.655 79.4386C124.656 79.4386 124.664 79.4385 124.662 79.44C124.655 79.4445 124.643 79.4464 124.635 79.4479C124.609 79.4528 124.582 79.4552 124.555 79.4608C124.496 79.4733 124.436 79.4832 124.376 79.4918C124.341 79.4968 124.305 79.5042 124.269 79.5041C124.26 79.5041 124.251 79.5037 124.243 79.5034C124.217 79.5027 124.295 79.5033 124.321 79.5008C124.43 79.4904 124.539 79.4663 124.649 79.4695C124.66 79.4698 124.651 79.4724 124.646 79.4743C124.621 79.4818 124.595 79.4855 124.57 79.4906C124.537 79.4973 124.503 79.5021 124.469 79.5087C124.458 79.5109 124.424 79.513 124.435 79.5145C124.452 79.5168 124.475 79.5114 124.491 79.5098C124.562 79.5029 124.632 79.4986 124.703 79.4961C124.713 79.4957 124.722 79.4955 124.732 79.4957C124.744 79.4958 124.707 79.4948 124.694 79.4946C124.66 79.4939 124.623 79.4946 124.589 79.5026C124.574 79.5062 124.554 79.5143 124.538 79.5138C124.529 79.5136 124.507 79.511 124.503 79.5183" stroke="white" stroke-width="0.1" stroke-linecap="round"/>
<path d="M124.626 79.509C124.607 79.5096 124.587 79.512 124.569 79.5151C124.557 79.517 124.522 79.5169 124.533 79.5173C124.601 79.5192 124.669 79.5139 124.736 79.5158C124.751 79.5163 124.706 79.515 124.691 79.5149C124.612 79.5147 124.533 79.5192 124.454 79.525C124.417 79.5278 124.38 79.5309 124.343 79.5362C124.338 79.5371 124.331 79.5384 124.341 79.5365C124.373 79.5302 124.405 79.5223 124.438 79.5159C124.456 79.5123 124.476 79.5044 124.494 79.5034C124.517 79.5022 124.536 79.487 124.556 79.4785C124.56 79.477 124.584 79.4707 124.585 79.4657C124.586 79.46 124.543 79.4623 124.539 79.4629C124.513 79.4669 124.49 79.4829 124.468 79.4939C124.453 79.5013 124.431 79.5088 124.413 79.5083C124.408 79.5082 124.404 79.508 124.399 79.5079C124.391 79.5077 124.418 79.508 124.418 79.508C124.451 79.5075 124.483 79.5012 124.516 79.5021C124.517 79.5022 124.521 79.502 124.52 79.5023C124.512 79.5036 124.503 79.5037 124.495 79.5045C124.469 79.507 124.445 79.5107 124.419 79.5103C124.403 79.51 124.387 79.513 124.371 79.5126C124.368 79.5125 124.354 79.5165 124.36 79.5155C124.378 79.5127 124.397 79.5053 124.414 79.5007C124.433 79.4958 124.452 79.4903 124.471 79.4852C124.476 79.4837 124.482 79.481 124.488 79.4812C124.494 79.4814 124.498 79.4802 124.498 79.4866C124.497 79.4979 124.498 79.4826 124.498 79.4788C124.498 79.4718 124.499 79.4647 124.499 79.4578C124.499 79.4549 124.483 79.4607 124.48 79.4618C124.47 79.4651 124.463 79.469 124.452 79.4706C124.443 79.4719 124.434 79.4717 124.425 79.473C124.406 79.4756 124.387 79.4838 124.368 79.4832C124.359 79.483 124.351 79.4841 124.342 79.4843C124.338 79.4844 124.35 79.4845 124.353 79.4846C124.373 79.4852 124.391 79.4824 124.41 79.4782C124.443 79.4712 124.48 79.4664 124.514 79.4674C124.522 79.4676 124.531 79.4669 124.538 79.4682C124.544 79.4691 124.514 79.4789 124.511 79.4811C124.506 79.4846 124.511 79.4903 124.504 79.4935C124.497 79.4965 124.483 79.5048 124.475 79.5046C124.464 79.5043 124.473 79.4858 124.476 79.4827" stroke="white" stroke-width="0.1" stroke-linecap="round"/>
<path d="M124.352 79.4527C124.373 79.4533 124.394 79.4547 124.415 79.4553C124.42 79.4555 124.417 79.4567 124.413 79.4569C124.405 79.4572 124.397 79.4559 124.389 79.4554C124.381 79.4549 124.378 79.4507 124.371 79.4499C124.367 79.4495 124.364 79.4489 124.36 79.4488C124.358 79.4488 124.355 79.4469 124.356 79.4472C124.36 79.4487 124.372 79.4492 124.368 79.4491C124.366 79.449 124.363 79.4456 124.365 79.4457C124.367 79.4458 124.369 79.4466 124.372 79.4467C124.377 79.4469 124.382 79.4447 124.388 79.4439C124.394 79.4432 124.402 79.4443 124.408 79.4445C124.414 79.4447 124.42 79.4432 124.427 79.4434C124.434 79.4436 124.441 79.4438 124.448 79.444C124.455 79.4442 124.462 79.4428 124.469 79.443C124.477 79.4432 124.485 79.441 124.493 79.4412C124.511 79.4418 124.529 79.4398 124.547 79.4403C124.556 79.4406 124.564 79.44 124.573 79.4396C124.587 79.439 124.601 79.4403 124.616 79.4407" stroke="white" stroke-width="0.1" stroke-linecap="round"/>
<path d="M116.288 80.6162C116.29 80.6099 116.292 80.6029 116.293 80.5964C116.293 80.5954 116.294 80.5912 116.295 80.5926C116.296 80.5956 116.297 80.6085 116.289 80.6065C116.285 80.6057 116.29 80.5827 116.291 80.58C116.293 80.5584 116.295 80.5367 116.296 80.5149" stroke="white" stroke-width="0.1" stroke-linecap="round"/>
<path d="M116.289 80.5729C116.289 80.563 116.29 80.5531 116.29 80.5433C116.29 80.5369 116.291 80.5305 116.291 80.5242C116.291 80.5167 116.295 80.5092 116.295 80.5018C116.296 80.4949 116.297 80.4881 116.297 80.4812C116.298 80.4717 116.297 80.4621 116.298 80.4527C116.298 80.4452 116.296 80.4379 116.296 80.4304C116.297 80.421 116.297 80.4116 116.298 80.4023" stroke="white" stroke-width="0.1" stroke-linecap="round"/>
<path d="M116.289 80.5303C116.289 80.5222 116.291 80.5142 116.291 80.5062C116.291 80.4978 116.294 80.4895 116.294 80.4813C116.295 80.4587 116.297 80.4363 116.298 80.4137" stroke="white" stroke-width="0.1" stroke-linecap="round"/>
<path d="M116.284 80.6204C116.285 80.5938 116.284 80.5672 116.285 80.5407C116.286 80.5234 116.286 80.5064 116.286 80.4892C116.287 80.4796 116.288 80.4701 116.289 80.4606C116.29 80.4534 116.292 80.4461 116.292 80.439C116.292 80.4324 116.293 80.4259 116.294 80.4194C116.296 80.4115 116.297 80.404 116.301 80.3965C116.305 80.3891 116.308 80.3824 116.31 80.3746" stroke="white" stroke-width="0.1" stroke-linecap="round"/>
<path d="M117.805 82.696C117.832 82.6513 117.856 82.6056 117.879 82.5597C117.889 82.5415 117.898 82.5237 117.906 82.5048C117.912 82.4876 117.917 82.4701 117.923 82.4528C117.933 82.4255 117.947 82.399 117.957 82.3717C117.968 82.342 117.978 82.3117 117.986 82.2813C117.994 82.251 117.997 82.2202 118.006 82.1901" stroke="white" stroke-width="0.1" stroke-linecap="round"/>
<path d="M117.922 82.646C117.929 82.6187 117.938 82.5916 117.943 82.5641C117.944 82.5596 117.945 82.555 117.946 82.5505C117.946 82.5484 117.947 82.5461 117.946 82.5505C117.941 82.5815 117.923 82.612 117.907 82.6397C117.9 82.6506 117.893 82.6614 117.886 82.6722C117.886 82.6731 117.884 82.676 117.884 82.6751C117.89 82.6686 117.895 82.6606 117.899 82.6535C117.915 82.6268 117.931 82.5997 117.944 82.5719C117.951 82.5578 117.956 82.5431 117.963 82.5292C117.964 82.5275 117.965 82.5247 117.964 82.529C117.957 82.5575 117.948 82.5855 117.938 82.6135C117.932 82.6288 117.928 82.6468 117.918 82.6611C117.918 82.6619 117.918 82.6593 117.918 82.6583C117.921 82.638 117.928 82.618 117.935 82.5984C117.943 82.5758 117.952 82.5534 117.96 82.5309C117.964 82.5208 117.967 82.5108 117.972 82.5011C117.972 82.5006 117.972 82.5001 117.973 82.4996C117.973 82.4993 117.972 82.5001 117.972 82.5004C117.966 82.5104 117.961 82.5206 117.955 82.5304C117.932 82.5659 117.903 82.5982 117.88 82.6332C117.879 82.6345 117.878 82.6377 117.877 82.6389C117.873 82.6421 117.878 82.6307 117.88 82.6267C117.891 82.5941 117.91 82.5635 117.928 82.5331C117.929 82.5311 117.931 82.5281 117.932 82.5263C117.934 82.5249 117.934 82.5267 117.934 82.5278C117.934 82.5398 117.927 82.5518 117.921 82.5626C117.912 82.5819 117.9 82.6007 117.89 82.62C117.885 82.6306 117.879 82.641 117.874 82.6516C117.872 82.6554 117.871 82.6593 117.87 82.663C117.869 82.6644 117.863 82.6793 117.86 82.6771C117.855 82.6743 117.857 82.6647 117.857 82.6609C117.858 82.651 117.86 82.6405 117.863 82.631C117.865 82.6271 117.867 82.6255 117.869 82.6221C117.874 82.6138 117.876 82.6051 117.88 82.5964C117.889 82.5762 117.894 82.5554 117.905 82.5355C117.91 82.5243 117.916 82.5129 117.922 82.5018C117.93 82.4869 117.932 82.4706 117.938 82.455C117.941 82.4457 117.945 82.4363 117.948 82.4269C117.948 82.4242 117.955 82.413 117.955 82.4215C117.957 82.4408 117.95 82.461 117.945 82.4797C117.942 82.4915 117.939 82.5036 117.935 82.5153C117.932 82.5238 117.93 82.5322 117.928 82.5409C117.925 82.552 117.923 82.5631 117.919 82.5738C117.912 82.5901 117.911 82.6078 117.904 82.6243C117.903 82.6279 117.901 82.6314 117.9 82.6349C117.899 82.6363 117.897 82.6394 117.898 82.6391C117.905 82.6379 117.908 82.6205 117.909 82.6174C117.917 82.5935 117.926 82.5697 117.935 82.546C117.943 82.5247 117.954 82.5044 117.964 82.4836C117.967 82.4773 117.97 82.4709 117.973 82.4646C117.973 82.4626 117.974 82.4565 117.975 82.4585C117.975 82.4606 117.974 82.4647 117.973 82.4665C117.97 82.4739 117.965 82.4807 117.96 82.4875C117.935 82.5238 117.914 82.5621 117.889 82.5986C117.881 82.6106 117.869 82.6218 117.862 82.6343C117.859 82.6394 117.857 82.6447 117.854 82.6499C117.852 82.6549 117.848 82.661 117.844 82.665C117.842 82.6666 117.839 82.6674 117.836 82.6685C117.834 82.6696 117.834 82.6714 117.832 82.6726C117.826 82.6761 117.82 82.6824 117.816 82.6877C117.814 82.691 117.813 82.695 117.811 82.6984C117.809 82.7002 117.807 82.7016 117.806 82.7039C117.805 82.7054 117.803 82.7071 117.801 82.7078" stroke="white" stroke-width="0.1" stroke-linecap="round"/>
<path d="M117.801 82.7068C117.801 82.7059 117.801 82.7055 117.8 82.7055C117.799 82.7055 117.797 82.7055 117.798 82.7054C117.801 82.7054 117.8 82.7035 117.801 82.7031" stroke="white" stroke-width="0.1" stroke-linecap="round"/>
<line y1="-0.5" x2="13.3368" y2="-0.5" transform="matrix(0.376736 0.926321 -0.960425 0.278539 105.294 92.0265)" stroke="#2DB4AB"/>
<line y1="-0.5" x2="7.86672" y2="-0.5" transform="matrix(1.03104 0.0452286 -0.204512 0.929279 105.294 92.0265)" stroke="#2DB4AB"/>
<line y1="-0.5" x2="7.86672" y2="-0.5" transform="matrix(1.03104 0.0452281 -0.204514 0.929279 106.377 94.691)" stroke="#2DB4AB"/>
<line y1="-0.5" x2="3.13806" y2="-0.5" transform="matrix(0.376736 0.926321 -0.960425 0.278539 113.307 92.14)" stroke="#2DB4AB"/>
<path d="M110.176 104.423C110.629 105.538 109.813 106.991 107.992 107.519C106.17 108.046 104.468 107.323 104.014 106.208C103.56 105.094 104.376 103.64 106.198 103.113C108.02 102.585 109.722 103.308 110.176 104.423Z" stroke="#2DB4AB"/>
<line y1="-0.5" x2="15.9735" y2="-0.5" transform="matrix(0.376736 0.926321 0.960425 -0.278539 128.269 93.2112)" stroke="#2DB4AB"/>
<line y1="-0.5" x2="7.85617" y2="-0.5" transform="matrix(-0.730602 0.624748 0.778236 0.692451 128.269 93.2112)" stroke="#2DB4AB"/>
<line y1="-0.5" x2="6.50843" y2="-0.5" transform="matrix(-0.825754 0.514717 -0.540719 -0.862425 129.41 96.66)" stroke="#2DB4AB"/>
<path d="M134.439 107.963C135.045 109.452 136.864 110.312 138.528 109.83C140.192 109.348 141.001 107.726 140.394 106.237C139.788 104.748 137.97 103.888 136.305 104.37C134.641 104.852 133.833 106.474 134.439 107.963Z" fill="#2DB4AB" stroke="#2DB4AB"/>
<line y1="-0.5" x2="22.3659" y2="-0.5" transform="matrix(1.00589 0.00654569 0.0374973 0.988746 112.735 115.658)" stroke="#2DB4AB"/>
<line y1="-0.5" x2="13.7733" y2="-0.5" transform="matrix(0.172222 -0.985058 0.992641 0.121096 110.437 128.801)" stroke="#2DB4AB"/>
<line y1="-0.5" x2="15.2978" y2="-0.5" transform="matrix(1.00572 0.00946527 0.0329356 0.989125 115.253 121.594)" stroke="#2DB4AB"/>
<line y1="-0.5" x2="12.0516" y2="-0.5" transform="matrix(-0.172223 0.985058 -0.992641 -0.121095 115.253 121.594)" stroke="#2DB4AB"/>
<line y1="-0.5" x2="7.31705" y2="-0.5" transform="matrix(-0.172223 0.985058 -0.992641 -0.121095 130.713 121.315)" stroke="#2DB4AB"/>
<line y1="-0.5" x2="17.647" y2="-0.5" transform="matrix(-0.172222 0.985058 -0.992641 -0.121096 135.307 115.38)" stroke="#2DB4AB"/>
<line y1="-0.5" x2="1.29144" y2="-0.5" transform="matrix(-0.172221 0.985058 -0.992641 -0.121097 113.673 117.071)" stroke="#2DB4AB"/>
<line y1="-0.5" x2="1.29144" y2="-0.5" transform="matrix(-0.172226 0.985058 -0.992641 -0.121093 116.649 117.001)" stroke="#2DB4AB"/>
<line y1="-0.5" x2="1.29144" y2="-0.5" transform="matrix(-0.172221 0.985058 -0.992641 -0.121097 119.625 116.931)" stroke="#2DB4AB"/>
<line y1="-0.5" x2="1.29144" y2="-0.5" transform="matrix(-0.172221 0.985058 -0.992641 -0.121097 122.601 116.861)" stroke="#2DB4AB"/>
<line y1="-0.5" x2="1.29144" y2="-0.5" transform="matrix(-0.172221 0.985058 -0.992641 -0.121097 125.577 116.791)" stroke="#2DB4AB"/>
<line y1="-0.5" x2="1.29144" y2="-0.5" transform="matrix(-0.172221 0.985058 -0.992641 -0.121097 128.553 116.721)" stroke="#2DB4AB"/>
<line y1="-0.5" x2="1.29144" y2="-0.5" transform="matrix(-0.17222 0.985058 -0.99264 -0.121097 131.528 116.651)" stroke="#2DB4AB"/>
<path d="M129.563 128.162C115.54 127.133 123.914 138.806 132.447 132.783" stroke="#2DB4AB"/>
<path d="M110.486 128.805C96.4868 127.533 104.493 139.338 113.224 133.47" stroke="#2DB4AB"/>
<path d="M113.169 133.588C113.213 133.59 113.248 133.548 113.276 133.53C113.307 133.511 113.345 133.495 113.378 133.477C113.399 133.465 113.415 133.452 113.436 133.44" stroke="#2DB4AB" stroke-width="0.25" stroke-linecap="round"/>
<path d="M113.223 133.478C113.286 133.443 113.329 133.397 113.381 133.355C113.39 133.347 113.4 133.346 113.411 133.344" stroke="#2DB4AB" stroke-width="0.25" stroke-linecap="round"/>
<path d="M113.149 133.642C113.2 133.629 113.258 133.632 113.309 133.616C113.316 133.614 113.339 133.607 113.341 133.601C113.344 133.592 113.363 133.583 113.373 133.578C113.386 133.571 113.385 133.559 113.392 133.549C113.396 133.543 113.407 133.523 113.414 133.52C113.42 133.518 113.431 133.511 113.436 133.507C113.443 133.502 113.448 133.495 113.456 133.49C113.468 133.483 113.485 133.483 113.497 133.475C113.54 133.442 113.577 133.399 113.599 133.355" stroke="#2DB4AB" stroke-width="0.25" stroke-linecap="round"/>
<path d="M113.123 133.556C113.189 133.561 113.259 133.55 113.325 133.547C113.351 133.546 113.376 133.543 113.401 133.542C113.434 133.541 113.462 133.534 113.49 133.523C113.51 133.516 113.535 133.522 113.553 133.516C113.565 133.513 113.571 133.51 113.582 133.505C113.594 133.5 113.611 133.499 113.619 133.491C113.638 133.473 113.563 133.508 113.534 133.515C113.487 133.528 113.436 133.531 113.388 133.544C113.348 133.555 113.298 133.572 113.264 133.59C113.257 133.594 113.252 133.602 113.243 133.605C113.23 133.608 113.222 133.609 113.213 133.617C113.205 133.623 113.181 133.64 113.187 133.633C113.204 133.613 113.231 133.597 113.252 133.579C113.299 133.54 113.359 133.508 113.414 133.475" stroke="#2DB4AB" stroke-width="0.25" stroke-linecap="round"/>
<path d="M113.113 133.439C113.174 133.393 113.237 133.35 113.309 133.313C113.328 133.302 113.353 133.289 113.376 133.282C113.41 133.273 113.349 133.307 113.347 133.308C113.269 133.354 113.2 133.406 113.126 133.456C113.106 133.471 113.088 133.491 113.063 133.502C113.014 133.524 113.098 133.443 113.1 133.441C113.16 133.372 113.225 133.306 113.305 133.25C113.313 133.245 113.32 133.237 113.328 133.233C113.337 133.228 113.328 133.241 113.326 133.242C113.306 133.256 113.276 133.263 113.254 133.276C113.211 133.301 113.178 133.335 113.147 133.368C113.095 133.423 113.046 133.478 112.983 133.526C112.981 133.528 112.953 133.55 112.958 133.538C112.96 133.53 112.974 133.527 112.981 133.523C113.025 133.496 113.058 133.454 113.09 133.42C113.153 133.352 113.212 133.282 113.278 133.216C113.354 133.141 113.436 133.068 113.518 132.996C113.596 132.927 113.673 132.855 113.738 132.778C113.746 132.769 113.755 132.762 113.756 132.751C113.757 132.747 113.755 132.759 113.754 132.763C113.751 132.771 113.741 132.775 113.737 132.783C113.703 132.845 113.653 132.905 113.609 132.964C113.558 133.03 113.504 133.089 113.43 133.142C113.38 133.177 113.333 133.214 113.289 133.254C113.259 133.281 113.233 133.302 113.195 133.323C113.166 133.339 113.137 133.352 113.11 133.371C113.068 133.399 113.031 133.426 112.996 133.46C112.979 133.477 112.971 133.46 112.984 133.447C113.009 133.421 113.023 133.391 113.046 133.364C113.106 133.298 113.197 133.25 113.265 133.189C113.324 133.135 113.39 133.073 113.434 133.011C113.459 132.977 113.479 132.939 113.501 132.903C113.51 132.887 113.515 132.871 113.518 132.854" stroke="#2DB4AB" stroke-width="0.25" stroke-linecap="round"/>
<path d="M112.961 133.48C113.031 133.413 113.104 133.347 113.175 133.28C113.201 133.256 113.231 133.235 113.255 133.21C113.302 133.161 113.336 133.105 113.374 133.053C113.465 132.927 113.554 132.801 113.647 132.676C113.684 132.627 113.723 132.579 113.753 132.528C113.788 132.47 113.811 132.407 113.837 132.346" stroke="#2DB4AB" stroke-width="0.25" stroke-linecap="round"/>
<path d="M112.977 133.449C113.122 133.283 113.301 133.121 113.38 132.928C113.422 132.827 113.448 132.719 113.457 132.613C113.462 132.547 113.47 132.48 113.481 132.415" stroke="#2DB4AB" stroke-width="0.25" stroke-linecap="round"/>
<path d="M115.764 121.512C115.756 121.557 115.749 121.603 115.734 121.647C115.724 121.678 115.71 121.708 115.7 121.739C115.698 121.746 115.695 121.766 115.684 121.77C115.681 121.771 115.679 121.774 115.677 121.773C115.673 121.77 115.675 121.765 115.674 121.761C115.67 121.733 115.669 121.705 115.669 121.677C115.669 121.622 115.672 121.567 115.677 121.512C115.677 121.508 115.678 121.505 115.677 121.511C115.674 121.524 115.669 121.536 115.663 121.548C115.634 121.603 115.604 121.658 115.573 121.712C115.565 121.728 115.56 121.736 115.551 121.712C115.53 121.661 115.528 121.61 115.532 121.558C115.532 121.547 115.533 121.545 115.531 121.557C115.528 121.572 115.525 121.587 115.518 121.602C115.51 121.618 115.502 121.635 115.498 121.652C115.497 121.656 115.495 121.657 115.491 121.652C115.48 121.637 115.48 121.619 115.479 121.602C115.479 121.578 115.477 121.553 115.482 121.529C115.486 121.502 115.46 121.581 115.448 121.606C115.445 121.613 115.442 121.638 115.436 121.642C115.429 121.646 115.419 121.587 115.418 121.582C115.418 121.579 115.411 121.545 115.409 121.547C115.394 121.563 115.392 121.592 115.384 121.611C115.381 121.618 115.38 121.628 115.375 121.634C115.365 121.647 115.373 121.602 115.376 121.586C115.376 121.584 115.377 121.556 115.375 121.568C115.372 121.58 115.37 121.592 115.368 121.603C115.366 121.618 115.359 121.642 115.367 121.612C115.37 121.604 115.374 121.597 115.375 121.588C115.378 121.57 115.362 121.596 115.359 121.601C115.352 121.612 115.343 121.623 115.338 121.635C115.338 121.636 115.332 121.65 115.329 121.644C115.323 121.633 115.334 121.61 115.336 121.599C115.338 121.585 115.333 121.597 115.348 121.599" stroke="#2DB4AB" stroke-width="0.25" stroke-linecap="round"/>
<path d="M115.78 121.52C115.776 121.543 115.762 121.564 115.755 121.586C115.75 121.601 115.748 121.616 115.743 121.63C115.737 121.646 115.735 121.662 115.731 121.679C115.731 121.679 115.723 121.689 115.726 121.689C115.738 121.688 115.743 121.658 115.745 121.653C115.754 121.624 115.765 121.592 115.786 121.567C115.79 121.563 115.793 121.551 115.798 121.55C115.8 121.549 115.809 121.546 115.808 121.547C115.795 121.563 115.789 121.586 115.78 121.604C115.764 121.635 115.741 121.668 115.736 121.701" stroke="#2DB4AB" stroke-width="0.25" stroke-linecap="round"/>
<path d="M130.585 121.568C130.67 121.553 130.754 121.535 130.836 121.514C130.837 121.514 130.851 121.51 130.843 121.515C130.837 121.519 130.828 121.523 130.822 121.525C130.787 121.539 130.749 121.55 130.713 121.561C130.646 121.582 130.579 121.603 130.514 121.627C130.485 121.638 130.451 121.647 130.424 121.66C130.424 121.66 130.42 121.662 130.423 121.662C130.464 121.654 130.504 121.642 130.544 121.633C130.585 121.623 130.625 121.612 130.667 121.604C130.682 121.602 130.699 121.6 130.714 121.597C130.715 121.597 130.718 121.596 130.717 121.597C130.704 121.601 130.693 121.609 130.682 121.615C130.67 121.624 130.657 121.632 130.646 121.641C130.643 121.644 130.635 121.648 130.633 121.651C130.632 121.653 130.652 121.654 130.653 121.654C130.665 121.653 130.676 121.65 130.688 121.648C130.692 121.648 130.706 121.646 130.703 121.648C130.696 121.655 130.685 121.658 130.676 121.661C130.671 121.664 130.668 121.667 130.663 121.669C130.661 121.67 130.656 121.67 130.655 121.672C130.654 121.674 130.653 121.68 130.654 121.678C130.658 121.656 130.662 121.634 130.665 121.612C130.668 121.598 130.676 121.577 130.666 121.564C130.654 121.546 130.651 121.524 130.646 121.505C130.642 121.488 130.636 121.47 130.637 121.454C130.638 121.442 130.636 121.428 130.642 121.416C130.65 121.402 130.656 121.402 130.676 121.405C130.685 121.407 130.694 121.41 130.703 121.412C130.705 121.412 130.713 121.414 130.708 121.412C130.696 121.406 130.68 121.406 130.667 121.4C130.664 121.398 130.664 121.396 130.662 121.394C130.659 121.391 130.653 121.389 130.649 121.387C130.642 121.384 130.645 121.388 130.653 121.384C130.665 121.377 130.661 121.368 130.681 121.37C130.687 121.371 130.696 121.372 130.701 121.367C130.707 121.361 130.69 121.36 130.686 121.364C130.672 121.377 130.629 121.367 130.61 121.369C130.601 121.37 130.592 121.368 130.584 121.37C130.577 121.372 130.574 121.372 130.566 121.371C130.557 121.37 130.586 121.374 130.595 121.373C130.608 121.372 130.624 121.373 130.637 121.373C130.663 121.373 130.688 121.371 130.714 121.374C130.719 121.375 130.724 121.375 130.73 121.376C130.734 121.377 130.708 121.375 130.702 121.374C130.695 121.374 130.675 121.373 130.669 121.368C130.662 121.362 130.656 121.362 130.646 121.359C130.646 121.359 130.65 121.364 130.654 121.367C130.669 121.379 130.664 121.397 130.661 121.412" stroke="#2DB4AB" stroke-width="0.25" stroke-linecap="round"/>
<path d="M132.248 132.703C132.255 132.698 132.258 132.689 132.262 132.682C132.272 132.666 132.284 132.651 132.293 132.634C132.321 132.586 132.352 132.538 132.384 132.491C132.421 132.436 132.444 132.375 132.455 132.314" stroke="#2DB4AB" stroke-width="0.25" stroke-linecap="round"/>
<path d="M132.518 132.64C132.504 132.665 132.488 132.688 132.469 132.712C132.451 132.735 132.429 132.757 132.413 132.781C132.391 132.815 132.379 132.853 132.368 132.89C132.364 132.904 132.358 132.918 132.356 132.932C132.355 132.941 132.372 132.92 132.378 132.913C132.44 132.848 132.508 132.788 132.565 132.721C132.576 132.708 132.588 132.695 132.597 132.682C132.598 132.68 132.602 132.675 132.602 132.677C132.599 132.707 132.582 132.731 132.564 132.757C132.537 132.794 132.512 132.831 132.488 132.869C132.486 132.872 132.473 132.891 132.49 132.881C132.517 132.864 132.538 132.842 132.561 132.823C132.588 132.801 132.617 132.782 132.649 132.764C132.674 132.749 132.702 132.734 132.727 132.719C132.729 132.717 132.729 132.72 132.728 132.721C132.728 132.728 132.722 132.734 132.717 132.74C132.684 132.777 132.64 132.808 132.604 132.843C132.592 132.854 132.577 132.866 132.568 132.879C132.568 132.88 132.56 132.89 132.567 132.883C132.601 132.85 132.64 132.819 132.686 132.793C132.696 132.788 132.711 132.779 132.723 132.776C132.724 132.776 132.723 132.78 132.723 132.78C132.721 132.784 132.719 132.788 132.716 132.792C132.699 132.806 132.684 132.82 132.668 132.836C132.656 132.848 132.642 132.862 132.624 132.87C132.609 132.877 132.596 132.889 132.586 132.899C132.582 132.902 132.577 132.91 132.577 132.914C132.576 132.919 132.579 132.905 132.581 132.9C132.583 132.893 132.586 132.888 132.591 132.882C132.603 132.865 132.624 132.853 132.638 132.837C132.656 132.817 132.674 132.796 132.692 132.776C132.698 132.767 132.703 132.758 132.712 132.751C132.714 132.75 132.722 132.742 132.722 132.743C132.723 132.747 132.721 132.752 132.72 132.756" stroke="#2DB4AB" stroke-width="0.25" stroke-linecap="round"/>
<path d="M135.238 115.606C135.194 115.603 135.149 115.599 135.104 115.599C135.067 115.598 135.156 115.606 135.159 115.606C135.221 115.614 135.283 115.621 135.346 115.629C135.355 115.63 135.376 115.63 135.385 115.634C135.397 115.641 135.327 115.656 135.323 115.657C135.296 115.664 135.27 115.666 135.243 115.67C135.221 115.674 135.225 115.684 135.242 115.69C135.259 115.697 135.261 115.706 135.272 115.716C135.285 115.727 135.253 115.738 135.242 115.742C135.227 115.747 135.228 115.741 135.231 115.735C135.245 115.711 135.247 115.684 135.252 115.658C135.262 115.601 135.267 115.543 135.277 115.485C135.279 115.474 135.241 115.464 135.244 115.449C135.244 115.445 135.244 115.431 135.251 115.432C135.259 115.432 135.274 115.433 135.277 115.438" stroke="#2DB4AB" stroke-width="0.25" stroke-linecap="round"/>
<path d="M132.843 132.862C132.85 132.852 132.859 132.838 132.872 132.83C132.875 132.828 132.879 132.827 132.881 132.825C132.901 132.807 132.845 132.861 132.825 132.878C132.821 132.881 132.818 132.881 132.814 132.883C132.808 132.885 132.827 132.855 132.828 132.852C132.834 132.845 132.838 132.83 132.848 132.826C132.852 132.825 132.854 132.817 132.851 132.821C132.842 132.834 132.831 132.846 132.82 132.858C132.818 132.861 132.811 132.865 132.81 132.868C132.809 132.869 132.807 132.872 132.807 132.868C132.807 132.864 132.801 132.863 132.802 132.859C132.804 132.848 132.807 132.84 132.815 132.832C132.824 132.823 132.837 132.82 132.843 132.809C132.845 132.804 132.856 132.8 132.861 132.796C132.864 132.794 132.866 132.786 132.868 132.784C132.872 132.778 132.882 132.771 132.883 132.765C132.885 132.755 132.897 132.747 132.904 132.739C132.91 132.731 132.921 132.721 132.929 132.715C132.947 132.7 132.947 132.68 132.961 132.664C132.966 132.658 132.97 132.646 132.979 132.642" stroke="white" stroke-width="0.1" stroke-linecap="round"/>
<path d="M132.703 132.931C132.7 132.938 132.686 132.941 132.684 132.949C132.683 132.95 132.671 132.961 132.67 132.961C132.666 132.962 132.665 132.965 132.663 132.967C132.657 132.973 132.649 132.978 132.643 132.984C132.634 132.994 132.638 132.983 132.642 132.981C132.647 132.978 132.655 132.974 132.657 132.97C132.662 132.963 132.665 132.957 132.672 132.951" stroke="white" stroke-width="0.1" stroke-linecap="round"/>
<path d="M129.425 128.442C129.466 128.443 129.508 128.443 129.548 128.442C129.562 128.442 129.575 128.447 129.589 128.446C129.65 128.442 129.708 128.436 129.77 128.436C129.907 128.436 130.045 128.429 130.182 128.446C130.183 128.446 130.202 128.448 130.196 128.45C130.18 128.458 130.151 128.46 130.133 128.461C130.07 128.465 130.007 128.464 129.944 128.47C129.803 128.482 129.661 128.49 129.518 128.494C129.436 128.497 129.349 128.504 129.267 128.496C129.246 128.494 129.226 128.491 129.206 128.489C129.145 128.481 129.327 128.5 129.388 128.5C129.644 128.503 129.905 128.478 130.16 128.509C130.185 128.512 130.164 128.515 130.15 128.518C130.091 128.528 130.03 128.53 129.97 128.535C129.89 128.541 129.81 128.544 129.731 128.55C129.704 128.552 129.625 128.549 129.651 128.554C129.69 128.563 129.743 128.557 129.782 128.557C129.947 128.558 130.113 128.565 130.279 128.576C130.301 128.577 130.323 128.579 130.345 128.581C130.374 128.584 130.287 128.574 130.258 128.571C130.178 128.561 130.091 128.555 130.011 128.564C129.975 128.568 129.927 128.58 129.889 128.576C129.869 128.573 129.819 128.563 129.806 128.577" stroke="white" stroke-width="0.1" stroke-linecap="round"/>
<path d="M130.094 128.585C130.05 128.582 130.004 128.583 129.961 128.585C129.933 128.586 129.85 128.578 129.878 128.582C130.034 128.601 130.193 128.605 130.348 128.624C130.383 128.628 130.279 128.615 130.245 128.612C130.061 128.594 129.876 128.586 129.692 128.58C129.605 128.578 129.517 128.576 129.431 128.579C129.417 128.579 129.401 128.58 129.425 128.579C129.502 128.573 129.578 128.564 129.655 128.558C129.699 128.554 129.747 128.542 129.791 128.544C129.844 128.547 129.891 128.519 129.941 128.507C129.95 128.504 130.007 128.496 130.01 128.486C130.014 128.475 129.914 128.47 129.905 128.47C129.843 128.473 129.787 128.501 129.733 128.519C129.696 128.531 129.642 128.541 129.6 128.536C129.589 128.535 129.578 128.534 129.567 128.532C129.549 128.53 129.612 128.537 129.612 128.537C129.688 128.543 129.766 128.537 129.841 128.546C129.844 128.547 129.853 128.547 129.85 128.548C129.831 128.549 129.809 128.547 129.791 128.547C129.732 128.546 129.674 128.548 129.614 128.542C129.577 128.538 129.538 128.54 129.501 128.536C129.495 128.535 129.46 128.54 129.475 128.539C129.518 128.538 129.563 128.527 129.605 128.521C129.65 128.515 129.695 128.508 129.74 128.501C129.754 128.499 129.767 128.495 129.781 128.497C129.796 128.499 129.805 128.497 129.802 128.51C129.798 128.534 129.804 128.502 129.805 128.494C129.808 128.48 129.811 128.465 129.813 128.451C129.813 128.445 129.775 128.453 129.767 128.455C129.743 128.46 129.725 128.466 129.7 128.467C129.679 128.468 129.658 128.465 129.637 128.466C129.593 128.467 129.546 128.48 129.501 128.474C129.481 128.472 129.462 128.472 129.442 128.471C129.433 128.47 129.459 128.473 129.467 128.474C129.514 128.48 129.555 128.478 129.601 128.474C129.679 128.466 129.768 128.465 129.847 128.474C129.864 128.476 129.885 128.477 129.902 128.481C129.915 128.484 129.843 128.498 129.835 128.502C129.823 128.508 129.832 128.521 129.815 128.526C129.799 128.531 129.763 128.545 129.744 128.542C129.719 128.539 129.746 128.503 129.752 128.497" stroke="white" stroke-width="0.1" stroke-linecap="round"/>
<path d="M129.473 128.406C129.522 128.412 129.57 128.42 129.619 128.426C129.63 128.427 129.623 128.429 129.615 128.428C129.596 128.427 129.578 128.423 129.559 128.42C129.541 128.417 129.534 128.408 129.518 128.405C129.51 128.403 129.502 128.401 129.494 128.4C129.488 128.4 129.482 128.395 129.484 128.396C129.492 128.4 129.521 128.404 129.512 128.402C129.507 128.402 129.502 128.395 129.505 128.395C129.511 128.396 129.515 128.398 129.521 128.399C129.534 128.4 129.545 128.397 129.559 128.397C129.574 128.396 129.592 128.401 129.607 128.402C129.621 128.404 129.635 128.402 129.649 128.404C129.666 128.406 129.682 128.408 129.699 128.41C129.715 128.412 129.732 128.411 129.747 128.413C129.767 128.415 129.785 128.412 129.805 128.415C129.846 128.42 129.888 128.42 129.929 128.425C129.95 128.427 129.969 128.428 129.989 128.429C130.023 128.431 130.056 128.437 130.09 128.441" stroke="white" stroke-width="0.1" stroke-linecap="round"/>
<path d="M110.429 129.021C110.436 129.008 110.442 128.994 110.446 128.981C110.447 128.979 110.45 128.97 110.451 128.973C110.452 128.979 110.452 129.006 110.434 129.001C110.427 128.998 110.443 128.952 110.445 128.946C110.456 128.902 110.465 128.857 110.473 128.812" stroke="white" stroke-width="0.1" stroke-linecap="round"/>
<path d="M110.442 128.932C110.446 128.911 110.449 128.891 110.453 128.87C110.455 128.857 110.458 128.844 110.46 128.831C110.463 128.816 110.473 128.801 110.476 128.785C110.478 128.771 110.483 128.758 110.486 128.743C110.489 128.724 110.49 128.704 110.493 128.684C110.496 128.669 110.494 128.653 110.496 128.638C110.5 128.618 110.503 128.599 110.506 128.579" stroke="white" stroke-width="0.1" stroke-linecap="round"/>
<path d="M110.453 128.843C110.456 128.826 110.461 128.81 110.464 128.793C110.467 128.776 110.475 128.759 110.478 128.742C110.487 128.696 110.497 128.65 110.505 128.603" stroke="white" stroke-width="0.1" stroke-linecap="round"/>
<path d="M110.419 129.027C110.428 128.973 110.433 128.917 110.443 128.863C110.449 128.827 110.453 128.792 110.459 128.756C110.462 128.737 110.467 128.717 110.471 128.698C110.475 128.683 110.481 128.669 110.484 128.654C110.486 128.64 110.49 128.627 110.494 128.614C110.5 128.598 110.505 128.583 110.515 128.568C110.525 128.553 110.534 128.54 110.539 128.524" stroke="white" stroke-width="0.1" stroke-linecap="round"/>
<path d="M113.418 133.657C113.492 133.571 113.559 133.482 113.626 133.392C113.653 133.357 113.68 133.322 113.702 133.284C113.721 133.25 113.737 133.215 113.756 133.181C113.786 133.127 113.824 133.075 113.855 133.021C113.889 132.962 113.919 132.901 113.945 132.84C113.972 132.779 113.988 132.716 114.017 132.656" stroke="white" stroke-width="0.1" stroke-linecap="round"/>
<path d="M113.704 133.581C113.727 133.526 113.753 133.472 113.774 133.416C113.777 133.407 113.781 133.398 113.784 133.388C113.785 133.384 113.786 133.379 113.783 133.388C113.764 133.451 113.715 133.51 113.67 133.564C113.652 133.585 113.633 133.606 113.614 133.627C113.612 133.629 113.606 133.634 113.609 133.632C113.624 133.62 113.637 133.605 113.649 133.591C113.693 133.539 113.737 133.487 113.775 133.432C113.794 133.405 113.809 133.375 113.829 133.348C113.831 133.345 113.835 133.339 113.831 133.348C113.807 133.405 113.779 133.461 113.748 133.517C113.731 133.547 113.716 133.584 113.691 133.611C113.689 133.613 113.69 133.607 113.691 133.605C113.704 133.564 113.726 133.524 113.747 133.485C113.771 133.44 113.797 133.396 113.822 133.351C113.833 133.331 113.844 133.311 113.857 133.292C113.858 133.291 113.858 133.29 113.859 133.289C113.859 133.288 113.857 133.29 113.857 133.29C113.841 133.31 113.827 133.33 113.81 133.349C113.748 133.417 113.673 133.478 113.609 133.545C113.606 133.547 113.603 133.554 113.6 133.556C113.591 133.562 113.605 133.539 113.61 133.531C113.645 133.466 113.696 133.407 113.747 133.348C113.75 133.344 113.754 133.339 113.759 133.335C113.762 133.333 113.762 133.337 113.762 133.339C113.758 133.363 113.739 133.387 113.724 133.408C113.696 133.446 113.665 133.482 113.637 133.52C113.621 133.54 113.604 133.56 113.59 133.581C113.585 133.589 113.582 133.597 113.577 133.604C113.576 133.607 113.558 133.636 113.55 133.631C113.541 133.624 113.547 133.605 113.548 133.597C113.552 133.577 113.561 133.555 113.571 133.536C113.575 133.529 113.581 133.526 113.586 133.519C113.599 133.503 113.607 133.486 113.618 133.469C113.645 133.429 113.663 133.387 113.692 133.348C113.708 133.326 113.723 133.304 113.74 133.282C113.762 133.253 113.772 133.22 113.789 133.189C113.799 133.171 113.811 133.152 113.819 133.133C113.822 133.128 113.839 133.106 113.839 133.124C113.839 133.164 113.815 133.204 113.799 133.242C113.789 133.265 113.781 133.29 113.768 133.313C113.759 133.33 113.75 133.347 113.743 133.364C113.734 133.387 113.728 133.409 113.715 133.43C113.695 133.463 113.687 133.499 113.668 133.532C113.664 133.539 113.659 133.546 113.655 133.553C113.653 133.556 113.646 133.561 113.65 133.561C113.665 133.56 113.678 133.525 113.681 133.518C113.706 133.471 113.733 133.424 113.759 133.377C113.783 133.334 113.815 133.295 113.843 133.254C113.851 133.242 113.86 133.229 113.868 133.217C113.87 133.213 113.873 133.2 113.874 133.205C113.875 133.209 113.87 133.217 113.868 133.221C113.859 133.235 113.846 133.248 113.833 133.261C113.764 133.331 113.706 133.405 113.638 133.475C113.616 133.498 113.585 133.519 113.566 133.543C113.558 133.553 113.552 133.563 113.545 133.574C113.539 133.583 113.527 133.595 113.516 133.602C113.512 133.605 113.504 133.606 113.498 133.608C113.493 133.61 113.492 133.614 113.487 133.616C113.472 133.622 113.457 133.633 113.447 133.643C113.44 133.65 113.438 133.658 113.431 133.664C113.427 133.668 113.423 133.67 113.419 133.675C113.417 133.677 113.411 133.68 113.406 133.681" stroke="white" stroke-width="0.1" stroke-linecap="round"/>
<path d="M113.407 133.682C113.408 133.68 113.408 133.678 113.404 133.678C113.403 133.678 113.397 133.677 113.4 133.678C113.406 133.678 113.405 133.672 113.409 133.671" stroke="white" stroke-width="0.1" stroke-linecap="round"/>
<path d="M94.145 63.5622C94.1992 68.2902 90.8692 65.3908 90.9146 68.0464C90.9354 69.26 92.7028 70.3426 93.6593 71.9102C94.7956 73.7726 95.1254 76.1615 94.7598 78.0503C94.5221 79.2788 94.0402 80.5155 93.3945 81.6456C91.6405 84.7157 88.8453 86.3982 84.3859 86.0986C80.148 85.814 75.8792 85.844 71.6284 85.6663C70.0961 85.6022 65.5934 84.3236 65.4586 85.1111C65.2588 86.2782 66.0429 87.0989 67.2496 87.4141C69.3671 87.9672 71.5484 88.5088 73.7473 88.678C77.9802 89.0038 82.2622 88.9284 86.4875 89.294C88.7237 89.4875 91.0215 90.0276 93.0466 90.8204C96.3866 92.1278 97.2584 94.4171 96.9227 97.9704C96.5995 101.392 94.6211 103.738 90.9802 105.316C90.1667 105.668 89.3926 106.089 88.6409 106.524C87.3667 107.262 87.4587 108.123 88.8513 108.661C89.662 108.974 90.4974 109.245 91.3115 109.552C95.0834 110.978 97.5623 115.043 96.616 118.239C96.1428 119.837 93.7259 120.534 92.1488 119.54C89.7369 118.02 87.1296 116.836 84.016 116.579C81.4712 116.368 79.3062 117.009 77.658 118.603C77.3335 118.917 77.0466 119.536 77.2192 119.833C77.4206 120.18 78.1198 120.472 78.6478 120.532C79.661 120.649 80.7068 120.612 81.7374 120.59C88.2783 120.45 92.4839 122.873 94.7045 127.873C97.3186 133.761 91.6872 138.386 85.8854 139.35C81.8706 140.018 78.4426 138.853 75.2982 136.972C72.3454 135.205 69.9263 133.018 67.6682 130.515C69.8302 130.595 71.8326 130.582 73.8081 130.763C76.4789 131.007 79.1319 131.386 81.7856 131.741C82.2952 131.809 82.7928 132.003 83.2608 132.196C84.571 132.734 84.5849 133.376 83.4415 134.143C82.7825 134.336 81.92 134.81 82.4693 135.296C83.0525 135.767 83.4925 135.809 84.0494 135.937C84.5135 136.043 85.0545 136.005 85.5455 135.945C86.9744 135.771 88.3379 135.423 88.9347 134.226C89.5377 133.016 88.7933 132.02 87.9078 131.103C85.5482 128.659 82.1856 128.031 78.6219 127.808C73.5904 127.495 68.5531 127.238 63.5265 126.88C62.3908 126.799 61.2478 126.486 60.1805 126.136C57.4578 125.242 56.4612 123.233 57.4968 121.024C59.1887 121.412 60.8478 121.926 62.5651 122.16C66.3179 122.671 69.7823 122.04 72.7194 119.988C74.1819 118.967 74.9793 117.687 74.6563 116.065C74.4798 115.179 73.8366 114.905 72.9382 115.424C72.0371 115.944 71.1805 116.524 70.3678 117.133C68.1156 118.822 65.4956 119.286 62.5693 118.702C59.4521 118.081 56.6482 117.018 55.023 114.619C53.2473 111.998 54.3789 108.409 57.6782 105.998C58.3566 105.503 59.1233 105.086 59.668 104.746C60.9623 105.541 62.0774 106.278 63.2614 106.934C63.9998 107.343 64.7943 107.33 65.2981 106.613C65.8068 105.889 65.683 105.241 64.8642 104.671C64.1085 104.145 63.288 103.635 62.7158 102.99C61.1844 101.264 61.5451 98.9612 63.4744 97.5206C63.6841 97.364 64.0162 97.2309 64.2927 97.2294C67.5435 97.2119 70.796 97.1761 74.0446 97.2477C75.2677 97.2746 76.535 97.4421 77.6895 97.7634C80.5165 98.5502 82.1021 100.671 81.6691 102.85C81.272 104.848 78.9552 106.345 76.0397 106.475C75.5121 106.499 74.971 106.43 74.4562 106.5C73.2073 106.533 73.447 107.604 73.6674 107.821C75.7 109.817 78.9003 110.316 81.6783 109.114C88.2346 106.276 88.7378 99.0556 82.6166 95.7036C80.3472 94.4609 77.8181 93.7724 75.1143 93.6619C71.8167 93.5272 68.5031 93.6406 65.2066 93.4952C62.0156 93.3545 59.161 92.4295 57.012 90.4233C55.3462 88.8683 54.9923 87.0799 55.8759 85.1458C57.5738 81.4294 61.9918 79.5061 67.2492 80.3235C70.7996 80.8756 74.2828 81.7315 77.8469 82.197C80.0829 82.489 82.4433 82.5137 84.6941 82.2951C88.321 81.943 90.4815 80.0872 91.2621 77.2142C92.0491 74.3177 91.1362 71.868 88.1759 70.0272C85.7354 68.5097 82.8781 67.8423 79.8807 67.5114C76.6179 67.1512 73.3908 67.2699 70.2302 68.0718C68.4325 68.622 68.2433 69.5772 68.3488 70.0527C68.4189 70.3688 69.3499 70.7594 69.9069 70.7713C72.546 70.8276 75.1961 70.6591 77.8288 70.774C80.6255 70.896 83.4404 71.1472 85.6405 72.8482C87.242 74.0865 87.8929 75.6573 87.2704 76.9284C86.5918 78.3141 84.8258 79.2048 82.5646 79.1024C80.9373 79.0286 79.3107 78.7978 77.7089 78.5365C74.2917 77.979 70.9033 77.3017 67.4773 76.7859C66.0144 76.5656 64.4868 76.6268 62.9448 76.5581C61.3942 73.2909 60.4796 71.3257 64.5092 68.2891C68.2357 65.4808 72.6496 63.5205 77.9461 63.6267C79.7673 63.6632 81.5643 64.3088 83.3839 64.6342C84.9132 64.9077 86.456 65.1358 88.0009 65.3455C88.2825 65.3837 89.583 65.6073 89.2324 65.1087C88.677 64.4217 88.3208 63.7435 87.7165 63.2745C84.9733 61.1454 81.5834 60.254 77.8504 60.1004C77.3488 60.0798 76.8451 60.0921 76.3425 60.0858C76.295 60.0852 76.2481 60.06 76.063 60.0059C77.4182 58.2741 79.0953 56.8814 81.5734 56.3924C84.8667 55.7426 88.0093 56.2588 90.825 57.7515C93.6641 59.2565 94.1099 60.4985 94.145 63.5622ZM56.798 94.4995C56.037 94.1407 55.5602 94.1847 54.9333 94.6072C51.6456 96.8232 50.6799 99.7774 50.8237 103.066C50.8746 104.23 51.3094 105.302 52.551 106.005C53.6141 105.272 54.5515 104.508 55.6325 103.915C56.7336 103.311 57.976 102.875 59.2032 102.346C58.6921 100.078 59.5012 98.0101 61.0155 96.1183C59.5549 95.5698 58.1147 95.1203 56.798 94.4995Z" fill="#2DB4AB"/>
</svg>
